<?xml version="1.0" encoding="utf-8"?>
<!-- Generator: Adobe Illustrator 18.0.0, SVG Export Plug-In . SVG Version: 6.00 Build 0)  -->
<!DOCTYPE svg PUBLIC "-//W3C//DTD SVG 1.1//EN" "http://www.w3.org/Graphics/SVG/1.1/DTD/svg11.dtd">
<svg version="1.1" id="_x32_" xmlns="http://www.w3.org/2000/svg" xmlns:xlink="http://www.w3.org/1999/xlink" x="0px" y="0px"
	 viewBox="0 0 800 800" enable-background="new 0 0 800 800" xml:space="preserve">
<g>
	<path fill="#FFFFFF" d="M686.7,79.8c-9.4-20.7-21.8-40-38.9-55c-17-15-39.6-24.9-65-24.8c-13,0-25.2,2.7-36,7.4
		c-19,8.3-33.4,22-44.4,36.8c-16.5,22.2-26.2,47.3-32.4,67.1c-1.6,5.3-3,10.2-4.2,14.6h-45.4h-40.6h-45.4
		c-3.3-13-8.8-30.6-17.3-48.9c-8.3-17.6-19.3-35.9-35.4-50.8c-8-7.4-17.4-14-28.3-18.7c-10.8-4.7-23.1-7.4-36-7.4
		c-25.3-0.1-47.8,9.6-64.9,24.3c-25.7,22.2-41,53.8-51,86.4c-9.9,32.8-14.1,67.1-14.1,96.4c0,44.7,0,219.3,0,284.3
		c0,24.9,3.9,55.8,13.5,88.9c14.4,49.6,41.9,104.3,90.1,147.2c48.1,43,117.2,72.7,209.1,72.5c61.3,0,112.4-13,153.9-34.6
		c62.4-32.4,102.4-83.5,126.3-134.5c23.9-51.2,32.4-102.3,32.5-139.5c0-65,0-239.6,0-284.3C712.6,169.3,705.3,121.4,686.7,79.8z
		 M664,491.4c0,19.8-3.2,46.8-11.5,75.3c-12.4,43-36.1,89.3-75.6,124.3c-39.6,35-95.1,60.1-176.8,60.2c-54.5,0-97.2-11.4-131.5-29.1
		c-51.2-26.6-84-68.2-104.6-111.9c-13.3-28.2-21-57.2-24.9-82.3c19.6,0,53.9,0,100.9,0c77.3,0,128.8-74.4,128.8-134.4
		c0-46.2,0-166,0-218.9h11h40.6H506l3.3-20.5c0-0.6,5.3-30.5,18.4-57.8c6.5-13.6,14.9-26.4,24.2-34.8c4.7-4.2,9.4-7.4,14.4-9.5
		c5-2.1,10.2-3.3,16.4-3.3c13.2,0.1,23,4.3,33.1,12.9c14.9,12.7,28,36.9,36.1,64.4c8.3,27.4,12.1,57.7,12,81.1
		C664,251.8,664,426.4,664,491.4z"/>
	<path fill="#FFFFFF" d="M395.9,548.2c-35.9,0-65,21.8-65,48.7c0,26.9,29.1,48.7,65,48.7c35.9,0,65-21.8,65-48.7
		C460.9,570.1,431.8,548.2,395.9,548.2z"/>
	<circle fill="#FFFFFF" cx="521.8" cy="389.8" r="40.6"/>
	<path fill="#FFFFFF" d="M581.4,111c-27.1,0-32.5,56.9-32.5,56.9h59.6C608.5,167.9,608.4,111,581.4,111z"/>
</g>
</svg>
